{"glyphs":{":":{"x_min":0,"x_max":338,"ha":338,"o":"m 126 0 l 126 106 l 212 106 l 212 0 z m 126 407 l 126 514 l 212 514 l 212 407 z"},"$":{"x_min":0,"x_max":676,"ha":676,"o":"m 307 661 l 286 661 q 208 661 180 634 q 153 607 153 528 q 153 463 181 441 q 209 418 307 412 z m 377 65 l 396 65 q 475 65 503 94 q 531 124 531 208 q 531 279 500 304 q 469 330 377 332 z m 67 237 l 143 237 q 143 231 143 221 q 142 210 142 205 q 142 125 169 96 q 196 67 271 67 q 285 67 292 67 q 300 67 307 68 l 307 335 q 175 336 125 379 q 75 421 75 528 q 75 640 122 688 q 168 737 275 737 q 288 737 294 737 q 301 736 307 736 l 307 787 l 377 787 l 377 736 l 397 736 q 506 736 553 696 q 601 655 601 563 q 601 556 601 548 q 600 539 599 522 l 522 522 q 522 527 523 534 q 523 541 523 553 q 523 615 496 637 q 469 659 391 659 l 377 659 l 377 409 q 510 406 560 363 q 609 321 609 211 q 609 92 563 40 q 517 -12 412 -12 q 398 -12 391 -12 q 383 -12 377 -11 l 377 -58 l 307 -58 l 307 -11 q 302 -11 293 -12 q 284 -12 280 -12 q 167 -12 116 36 q 65 84 65 193 q 65 205 67 232 q 67 235 67 237 z"},"?":{"x_min":0,"x_max":519,"ha":519,"o":"m 187 0 l 187 93 l 268 93 l 268 0 z m 187 199 l 187 257 q 187 300 207 327 q 227 353 302 386 l 308 389 q 379 419 394 441 q 403 455 408 480 q 412 506 412 546 q 412 612 388 637 q 365 661 295 661 q 219 661 188 657 q 157 653 145 644 q 130 633 124 608 q 117 584 117 540 q 117 525 117 517 q 118 509 118 502 l 38 502 l 38 574 q 38 663 89 699 q 140 736 270 736 q 399 736 445 695 q 490 653 490 544 q 490 453 471 410 q 452 367 404 345 q 390 338 364 327 q 268 285 268 236 l 268 199 z"},"<":{"x_min":0,"x_max":833,"ha":833,"o":"m 704 501 l 205 298 l 704 96 l 704 43 l 129 278 l 129 318 l 704 554 z"},"'":{"x_min":0,"x_max":144,"ha":144,"o":"m 97 700 l 97 430 l 48 430 l 48 700 z"},"=":{"x_min":0,"x_max":833,"ha":833,"o":"m 709 231 l 709 183 l 124 183 l 124 231 z m 709 413 l 709 365 l 124 365 l 124 413 z"},"a":{"x_min":0,"x_max":565,"ha":565,"o":"m 415 131 l 415 185 q 415 222 378 239 q 340 256 259 256 q 184 256 159 237 q 134 218 134 165 q 134 104 160 84 q 187 64 267 64 q 339 64 377 81 q 415 99 415 131 z m 419 54 q 401 22 363 8 q 325 -7 257 -7 q 136 -7 95 28 q 54 62 54 156 q 54 210 64 241 q 73 271 95 290 q 114 306 150 312 q 186 319 253 319 q 323 319 360 307 q 396 296 415 269 l 415 358 q 415 421 391 439 q 366 458 268 458 q 197 458 173 443 q 150 428 149 387 l 73 387 l 73 399 q 73 465 116 493 q 159 521 263 521 q 345 521 387 514 q 430 507 450 492 q 473 475 482 449 q 491 423 491 360 l 491 0 l 422 0 z"},"L":{"x_min":0,"x_max":597,"ha":597,"o":"m 88 0 l 88 727 l 167 727 l 167 76 l 579 76 l 579 0 z"},"3":{"x_min":0,"x_max":676,"ha":676,"o":"m 71 241 l 152 241 l 152 176 q 152 112 186 89 q 220 66 344 66 q 431 66 465 75 q 499 83 514 105 q 521 116 524 139 q 527 162 527 221 q 527 290 500 311 q 472 333 400 333 l 289 333 l 289 407 l 390 407 q 462 407 488 432 q 514 457 514 537 q 514 591 509 610 q 503 629 489 640 q 477 650 439 655 q 401 660 329 660 q 225 660 195 640 q 165 621 165 565 l 165 499 l 84 499 l 84 563 q 84 656 139 696 q 194 736 327 736 q 413 736 455 731 q 498 727 521 715 q 563 695 580 658 q 597 621 597 542 q 597 455 575 421 q 552 386 495 374 q 559 361 584 326 q 609 292 609 213 q 609 164 604 131 q 600 99 590 75 q 570 29 520 10 q 469 -9 346 -9 q 231 -9 191 1 q 150 10 124 34 q 97 59 84 95 q 71 131 71 184 z"},";":{"x_min":0,"x_max":338,"ha":338,"o":"m 126 407 l 126 514 l 212 514 l 212 407 z m 126 0 l 126 106 l 212 106 l 212 -22 q 212 -61 189 -82 q 167 -103 126 -103 l 126 -58 q 146 -56 154 -48 q 162 -40 162 -22 l 162 0 z"},"J":{"x_min":0,"x_max":590,"ha":590,"o":"m 23 255 l 104 255 l 104 243 q 104 130 130 98 q 156 67 237 67 l 295 67 q 376 67 402 98 q 428 129 428 243 l 428 727 l 509 727 l 509 219 q 509 97 461 44 q 414 -9 302 -9 l 230 -9 q 114 -9 69 46 q 23 100 23 240 z"},"V":{"x_min":0,"x_max":650,"ha":650,"o":"m 1 727 l 87 727 l 319 75 l 552 727 l 637 727 l 371 0 l 267 0 z"},"\"":{"x_min":0,"x_max":278,"ha":278,"o":"m 231 700 l 231 430 l 181 430 l 181 700 z m 97 700 l 97 430 l 48 430 l 48 700 z"},"7":{"x_min":0,"x_max":676,"ha":676,"o":"m 85 650 l 85 727 l 607 727 l 607 647 l 256 0 l 159 0 l 522 650 z"},"S":{"x_min":0,"x_max":713,"ha":713,"o":"m 68 237 l 149 237 l 149 223 q 149 158 159 127 q 168 97 191 84 q 208 74 245 70 q 282 66 396 66 q 458 66 492 74 q 526 82 543 100 q 552 110 557 133 q 561 157 561 197 q 561 278 545 299 q 528 319 480 323 l 256 341 q 155 349 117 391 q 78 434 78 534 q 78 598 91 636 q 104 675 132 700 q 154 720 193 728 q 233 736 333 736 l 359 736 q 471 736 516 725 q 562 714 593 688 q 614 670 624 638 q 634 605 634 557 q 634 543 634 535 q 633 528 633 522 l 552 522 l 552 540 q 552 580 547 601 q 542 623 532 633 q 517 648 478 654 q 439 660 331 660 q 219 660 190 635 q 161 609 161 533 q 161 471 180 447 q 199 423 252 419 l 481 400 q 571 392 607 350 q 643 309 643 211 q 643 140 634 104 q 625 68 603 44 q 577 14 532 2 q 487 -10 369 -10 l 333 -10 q 232 -10 191 0 q 149 11 121 36 q 94 60 81 100 q 68 140 68 201 z"},"}":{"x_min":0,"x_max":500,"ha":500,"o":"m 271 540 l 271 422 q 271 347 299 316 q 327 285 394 285 q 397 285 405 286 q 412 286 416 286 l 416 233 q 412 233 405 233 q 397 234 394 234 q 327 234 299 203 q 271 172 271 97 l 271 -22 q 271 -131 237 -167 q 203 -202 107 -202 l 84 -202 l 84 -150 l 103 -150 q 167 -150 189 -126 q 211 -102 211 -27 l 211 91 q 211 174 232 209 q 253 244 307 259 q 253 274 232 309 q 211 344 211 427 l 211 545 q 211 622 189 646 q 167 670 106 670 q 103 670 95 669 q 88 669 84 669 l 84 721 l 107 721 q 203 721 237 685 q 271 649 271 540 z"},"Z":{"x_min":0,"x_max":650,"ha":650,"o":"m 47 0 l 47 87 l 514 655 l 68 655 l 68 727 l 599 727 l 599 642 l 135 76 l 599 76 l 599 0 z"},"x":{"x_min":0,"x_max":506,"ha":506,"o":"m 17 0 l 212 275 l 42 514 l 128 514 l 252 334 l 376 514 l 462 514 l 294 275 l 489 0 l 403 0 l 252 217 l 104 0 z"},")":{"x_min":0,"x_max":324,"ha":324,"o":"m 250 487 l 250 240 q 250 101 210 46 q 171 -9 73 -9 l 42 -9 l 42 67 l 64 67 q 125 67 146 97 q 166 127 166 243 l 166 484 q 166 600 146 630 q 125 660 64 660 l 42 660 l 42 736 l 73 736 q 171 736 210 681 q 250 626 250 487 z"},"&":{"x_min":0,"x_max":727,"ha":727,"o":"m 524 146 l 256 370 q 190 369 164 338 q 138 307 138 220 q 138 159 145 133 q 151 107 167 94 q 184 79 221 73 q 258 67 354 67 q 434 67 473 85 q 513 104 524 146 z m 590 90 q 565 34 509 12 q 453 -10 311 -10 q 210 -10 166 4 q 121 18 92 52 q 73 75 64 116 q 55 157 55 228 q 55 321 85 366 q 116 411 186 425 q 152 449 135 487 q 119 524 119 579 q 119 667 165 701 q 211 736 336 736 q 454 736 505 699 q 556 662 556 577 l 556 516 l 475 516 l 475 572 q 475 624 453 642 q 431 660 336 660 q 245 660 224 644 q 203 628 203 579 q 203 510 271 453 l 277 448 l 539 229 l 539 330 l 620 330 l 620 223 q 620 212 619 198 q 617 184 614 166 l 751 52 l 704 -5 z"},"_":{"x_min":0,"x_max":500,"ha":500,"o":"m 500 -187 l 500 -236 l 0 -236 l 0 -187 z"},"v":{"x_min":0,"x_max":472,"ha":472,"o":"m 7 514 l 83 514 l 236 72 l 389 514 l 463 514 l 286 0 l 187 0 z"},"O":{"x_min":0,"x_max":745,"ha":745,"o":"m 395 660 l 350 660 q 273 660 242 652 q 210 644 187 624 q 166 605 157 574 q 148 542 148 466 l 148 260 q 148 184 157 153 q 166 122 187 103 q 210 83 242 75 q 273 67 350 67 l 395 67 q 472 67 504 75 q 536 83 559 103 q 580 121 589 151 q 597 182 597 260 l 597 467 q 597 543 588 575 q 580 606 558 625 q 536 644 504 652 q 472 660 395 660 z m 65 487 q 65 626 123 681 q 180 736 327 736 l 419 736 q 567 736 624 682 q 681 627 681 487 l 681 240 q 681 101 623 46 q 565 -9 419 -9 l 327 -9 q 180 -9 123 46 q 65 101 65 240 z"},"(":{"x_min":0,"x_max":324,"ha":324,"o":"m 74 487 q 74 626 114 681 q 153 736 251 736 l 282 736 l 282 660 l 260 660 q 199 660 178 630 q 158 600 158 484 l 158 243 q 158 127 178 97 q 199 67 260 67 l 282 67 l 282 -9 l 251 -9 q 153 -9 114 46 q 74 101 74 240 z"},"C":{"x_min":0,"x_max":683,"ha":683,"o":"m 65 487 q 65 626 118 681 q 172 736 307 736 l 392 736 q 526 736 581 689 q 635 642 635 529 l 635 497 l 552 497 l 552 517 q 552 600 518 630 q 484 660 386 660 l 330 660 q 264 660 234 652 q 204 644 184 625 q 164 606 156 576 q 148 546 148 467 l 148 260 q 148 181 156 151 q 164 121 184 102 q 204 83 233 75 q 261 67 330 67 l 386 67 q 487 67 520 99 q 553 130 553 220 q 553 234 553 241 q 553 249 552 255 l 635 255 l 635 207 q 635 86 582 39 q 530 -9 392 -9 l 307 -9 q 172 -9 118 46 q 65 101 65 240 z"},"W":{"x_min":0,"x_max":1007,"ha":1007,"o":"m 30 727 l 113 727 l 279 98 l 446 727 l 560 727 l 728 98 l 894 727 l 978 727 l 780 0 l 677 0 l 503 640 l 332 0 l 225 0 z"},"A":{"x_min":0,"x_max":692,"ha":692,"o":"m 189 258 l 504 258 l 359 650 l 333 650 z m 11 0 l 280 727 l 412 727 l 682 0 l 599 0 l 530 186 l 162 186 l 94 0 z"},"f":{"x_min":0,"x_max":336,"ha":336,"o":"m 23 449 l 23 514 l 95 514 q 95 520 94 528 q 94 535 94 549 q 94 647 129 687 q 163 727 248 727 q 270 727 291 726 q 312 725 333 723 l 333 654 q 327 654 315 655 q 282 656 269 656 q 210 656 190 638 q 171 620 171 549 l 171 514 l 333 514 l 333 449 l 171 449 l 171 0 l 95 0 l 95 449 z"},"Q":{"x_min":0,"x_max":745,"ha":745,"o":"m 597 243 l 597 467 q 597 543 588 575 q 580 606 558 625 q 536 644 504 652 q 472 660 395 660 l 350 660 q 273 660 242 652 q 210 644 187 624 q 166 605 157 574 q 148 542 148 466 l 148 260 q 148 184 157 153 q 166 122 187 103 q 210 83 242 75 q 273 67 350 67 l 413 67 q 471 67 498 70 q 525 73 537 80 l 400 217 l 451 269 l 590 132 q 593 152 595 181 q 597 209 597 243 z m 65 487 q 65 626 123 681 q 180 736 327 736 l 419 736 q 567 736 624 682 q 681 627 681 487 l 681 240 q 681 170 673 136 q 664 101 644 79 l 688 35 l 635 -19 l 589 28 q 569 8 533 0 q 497 -9 419 -9 l 327 -9 q 180 -9 123 46 q 65 101 65 240 z"},"w":{"x_min":0,"x_max":780,"ha":780,"o":"m 29 514 l 100 514 l 218 72 l 336 514 l 441 514 l 560 72 l 678 514 l 751 514 l 612 0 l 507 0 l 389 441 l 269 0 l 166 0 z"},"-":{"x_min":0,"x_max":403,"ha":403,"o":"m 65 237 l 65 305 l 338 305 l 338 237 z"},"E":{"x_min":0,"x_max":639,"ha":639,"o":"m 88 0 l 88 727 l 598 727 l 598 650 l 168 650 l 168 412 l 586 412 l 586 338 l 168 338 l 168 76 l 598 76 l 598 0 z"},"s":{"x_min":0,"x_max":583,"ha":583,"o":"m 60 153 l 137 153 l 137 141 q 137 94 167 76 q 196 58 284 58 q 383 58 406 76 q 429 94 429 146 q 429 196 410 213 q 392 230 316 234 q 289 235 241 237 q 138 240 118 251 q 89 267 76 295 q 64 323 64 375 q 64 460 107 491 q 151 521 299 521 q 414 521 454 492 q 495 463 495 391 l 419 391 l 419 396 q 419 430 389 443 q 360 456 272 456 q 187 456 164 440 q 140 425 140 375 q 140 345 145 333 q 149 320 160 314 q 183 302 262 300 q 282 299 292 299 q 357 296 394 292 q 430 288 446 281 q 480 265 494 236 q 509 207 509 151 q 509 94 495 65 q 480 36 444 13 q 427 2 390 -2 q 352 -7 285 -7 q 148 -7 104 25 q 60 56 60 139 z"},">":{"x_min":0,"x_max":833,"ha":833,"o":"m 704 318 l 704 278 l 129 43 l 129 96 l 628 298 l 129 501 l 129 554 z"},"l":{"x_min":0,"x_max":234,"ha":234,"o":"m 79 0 l 79 727 l 155 727 l 155 0 z"},"8":{"x_min":0,"x_max":676,"ha":676,"o":"m 343 411 q 453 411 483 434 q 514 458 514 532 q 514 576 511 595 q 507 614 499 626 q 487 644 450 652 q 412 660 336 660 q 268 660 232 654 q 196 648 182 634 q 171 624 167 603 q 162 583 162 528 q 162 457 194 434 q 225 411 343 411 z m 337 67 q 409 67 443 73 q 478 78 494 91 q 512 104 519 127 q 526 149 526 201 q 526 243 522 264 q 518 285 509 299 q 495 321 460 330 q 426 339 337 339 q 261 339 228 333 q 195 328 179 315 q 164 302 157 277 q 150 252 150 210 q 150 158 155 135 q 161 112 173 99 q 189 82 226 74 q 262 67 337 67 z m 171 378 q 121 391 100 425 q 80 458 80 534 q 80 594 86 623 q 92 652 107 674 q 130 708 180 722 q 231 736 342 736 q 426 736 475 727 q 524 719 546 700 q 574 676 586 643 q 597 610 597 540 q 597 459 576 424 q 554 388 503 378 q 561 363 584 327 q 607 292 607 210 q 607 131 597 94 q 586 56 562 34 q 536 11 486 1 q 437 -9 330 -9 q 224 -9 174 5 q 125 20 97 54 q 82 73 75 106 q 69 140 69 208 q 69 292 91 328 q 114 363 171 378 z"},"\\":{"x_min":0,"x_max":266,"ha":266,"o":"m 303 -93 l 235 -93 l -24 736 l 45 736 z"},"e":{"x_min":0,"x_max":565,"ha":565,"o":"m 137 307 l 428 307 l 428 327 q 428 399 402 425 q 376 451 300 451 l 264 451 q 188 451 163 425 q 137 399 137 327 z m 265 -7 q 150 -7 104 38 q 58 83 58 196 l 58 318 q 58 431 104 476 q 149 521 264 521 l 300 521 q 415 521 461 476 q 507 431 507 318 l 507 240 l 137 240 q 137 232 136 222 q 136 213 136 196 q 136 116 162 89 q 187 62 264 62 l 300 62 q 369 62 396 82 q 422 102 427 151 l 506 151 q 500 67 452 30 q 404 -7 301 -7 z"},"b":{"x_min":0,"x_max":574,"ha":574,"o":"m 156 299 l 156 215 q 156 135 193 98 q 230 62 313 62 q 388 62 412 89 q 437 116 437 213 l 437 301 q 437 398 412 425 q 388 452 313 452 q 230 452 193 416 q 156 379 156 299 z m 80 0 l 80 727 l 156 727 l 156 441 q 178 483 215 502 q 252 521 316 521 q 426 521 471 476 q 516 430 516 318 l 516 196 q 516 84 471 39 q 426 -7 316 -7 q 250 -7 210 14 q 171 35 153 79 l 153 0 z"},"%":{"x_min":0,"x_max":907,"ha":907,"o":"m 290 -9 l 547 736 l 616 736 l 359 -9 z m 189 337 l 225 337 q 279 337 296 355 q 313 373 313 442 l 313 565 q 313 634 296 653 q 278 671 225 671 l 189 671 q 135 671 118 652 q 100 634 100 565 l 100 442 q 100 374 117 355 q 134 337 189 337 z m 683 57 l 718 57 q 773 57 790 75 q 807 94 807 162 l 807 285 q 807 354 790 373 q 772 391 718 391 l 683 391 q 629 391 612 373 q 594 354 594 285 l 594 162 q 594 94 611 75 q 628 57 683 57 z m 185 271 q 102 271 69 305 q 36 339 36 426 l 36 580 q 36 667 69 701 q 103 736 185 736 l 229 736 q 312 736 344 702 q 377 668 377 580 l 377 426 q 377 338 344 304 q 312 271 229 271 z m 678 -9 q 595 -9 562 25 q 530 60 530 147 l 530 300 q 530 387 563 422 q 596 456 678 456 l 722 456 q 805 456 838 422 q 871 388 871 300 l 871 147 q 871 59 838 25 q 805 -9 722 -9 z"},"m":{"x_min":0,"x_max":884,"ha":884,"o":"m 90 0 l 90 514 l 164 514 l 164 444 q 180 483 218 502 q 256 521 318 521 q 383 521 420 501 q 457 481 475 436 q 498 481 534 501 q 571 521 631 521 q 732 521 771 481 q 810 441 810 337 l 810 0 l 734 0 l 734 313 q 734 399 712 426 q 689 452 625 452 q 554 452 521 416 q 489 379 489 299 l 489 0 l 415 0 l 415 348 q 415 409 393 431 q 371 452 308 452 q 235 452 200 415 q 166 378 166 299 l 166 0 z"},"#":{"x_min":0,"x_max":769,"ha":769,"o":"m 476 422 l 346 422 l 299 287 l 429 287 z m 448 710 l 366 474 l 495 474 l 579 710 l 641 710 l 558 474 l 712 474 l 694 422 l 539 422 l 491 287 l 657 287 l 639 234 l 473 234 l 390 0 l 327 0 l 411 234 l 280 234 l 196 0 l 134 0 l 217 234 l 57 234 l 76 287 l 235 287 l 284 422 l 112 422 l 129 474 l 302 474 l 386 710 z"},",":{"x_min":0,"x_max":338,"ha":338,"o":"m 126 0 l 126 106 l 212 106 l 212 -22 q 212 -61 189 -82 q 167 -103 126 -103 l 126 -58 q 146 -56 154 -48 q 162 -40 162 -22 l 162 0 z"},"n":{"x_min":0,"x_max":576,"ha":576,"o":"m 79 0 l 79 514 l 152 514 l 152 444 q 170 483 211 502 q 252 521 320 521 q 421 521 461 480 q 502 439 502 337 l 502 0 l 426 0 l 426 321 q 426 401 402 427 q 378 452 310 452 q 229 452 192 415 q 155 378 155 299 l 155 0 z"},"h":{"x_min":0,"x_max":576,"ha":576,"o":"m 79 0 l 79 727 l 152 727 l 152 444 q 170 483 211 502 q 252 521 320 521 q 421 521 461 480 q 502 439 502 337 l 502 0 l 426 0 l 426 321 q 426 401 402 427 q 378 452 310 452 q 229 452 192 416 q 155 379 155 299 l 155 0 z"},"z":{"x_min":0,"x_max":516,"ha":516,"o":"m 58 0 l 58 83 l 376 444 l 73 444 l 73 514 l 469 514 l 469 443 l 140 69 l 469 69 l 469 0 z"},"B":{"x_min":0,"x_max":701,"ha":701,"o":"m 169 413 l 431 413 q 495 413 517 436 q 539 459 539 537 q 539 612 516 631 q 492 650 396 650 l 169 650 z m 169 76 l 434 76 q 506 76 531 98 q 556 121 556 214 q 556 292 528 316 q 500 339 384 339 l 169 339 z m 90 0 l 90 727 l 428 727 q 545 727 584 691 q 622 656 622 546 q 622 461 603 427 q 584 394 537 381 q 595 366 617 329 q 640 292 640 203 q 640 83 593 42 q 545 0 403 0 z"},"K":{"x_min":0,"x_max":669,"ha":669,"o":"m 88 0 l 88 727 l 168 727 l 168 419 l 230 419 l 525 727 l 631 727 l 296 380 l 674 0 l 564 0 l 230 341 l 168 341 l 168 0 z"},"R":{"x_min":0,"x_max":699,"ha":699,"o":"m 400 650 l 168 650 l 168 359 l 400 359 q 491 359 519 381 q 547 404 547 462 l 547 547 q 547 606 520 628 q 493 650 400 650 z m 88 0 l 88 727 l 416 727 q 539 727 585 691 q 631 654 631 561 l 631 451 q 631 394 608 362 q 584 329 537 321 q 589 309 610 276 q 631 244 631 175 l 631 0 l 547 0 l 547 150 q 547 228 522 256 q 498 283 426 283 l 168 283 l 168 0 z"},"T":{"x_min":0,"x_max":522,"ha":522,"o":"m -11 650 l -11 727 l 533 727 l 533 650 l 301 650 l 301 0 l 220 0 l 220 650 z"},"P":{"x_min":0,"x_max":655,"ha":655,"o":"m 525 451 l 525 558 q 525 611 500 630 q 476 650 393 650 l 168 650 l 168 359 l 393 359 q 474 359 500 379 q 525 399 525 451 z m 88 0 l 88 727 l 394 727 q 517 727 563 691 q 609 654 609 561 l 609 451 q 609 355 563 319 q 518 282 394 282 l 168 282 l 168 0 z"},"|":{"x_min":0,"x_max":500,"ha":500,"o":"m 277 764 l 277 -236 l 224 -236 l 224 764 z"},"t":{"x_min":0,"x_max":493,"ha":493,"o":"m 28 449 l 28 514 l 91 514 l 91 630 l 167 630 l 167 514 l 419 514 l 419 449 l 167 449 l 167 166 q 167 105 187 84 q 207 62 262 62 q 317 62 337 83 q 356 104 356 166 l 356 181 l 433 181 l 433 177 q 433 68 397 31 q 361 -7 248 -7 q 160 -7 125 33 q 91 73 91 177 l 91 449 z"},"M":{"x_min":0,"x_max":937,"ha":937,"o":"m 88 0 l 88 727 l 220 727 l 469 79 l 716 727 l 849 727 l 849 0 l 769 0 l 769 659 l 518 0 l 419 0 l 168 659 l 168 0 z"},"g":{"x_min":0,"x_max":588,"ha":588,"o":"m 433 215 l 433 299 q 433 379 396 416 q 358 452 276 452 q 201 452 176 425 q 151 398 151 301 l 151 213 q 151 116 176 89 q 201 62 276 62 q 358 62 396 98 q 433 135 433 215 z m 509 514 l 509 6 q 509 -107 464 -152 q 420 -197 308 -197 l 273 -197 q 172 -197 126 -160 q 80 -124 73 -39 l 151 -39 q 156 -88 181 -108 q 207 -127 274 -127 l 308 -127 q 375 -127 404 -105 q 433 -83 433 -33 l 433 73 q 412 31 374 12 q 337 -7 273 -7 q 163 -7 118 39 q 73 84 73 196 l 73 318 q 73 430 118 476 q 163 521 273 521 q 339 521 378 500 q 417 479 436 434 l 436 514 z"},"j":{"x_min":0,"x_max":248,"ha":248,"o":"m 171 -75 q 171 -136 145 -167 q 119 -197 67 -197 q 60 -197 51 -196 q 42 -195 31 -194 l 31 -134 l 57 -134 q 78 -134 86 -116 q 94 -99 94 -34 l 94 514 l 171 514 z m 94 641 l 94 727 l 171 727 l 171 641 z"},"i":{"x_min":0,"x_max":234,"ha":234,"o":"m 79 641 l 79 727 l 155 727 l 155 641 z m 79 0 l 79 514 l 155 514 l 155 0 z"},"y":{"x_min":0,"x_max":488,"ha":488,"o":"m 23 514 l 99 514 l 252 72 l 404 514 l 479 514 l 285 -45 q 253 -136 220 -168 q 188 -200 132 -200 q 124 -200 114 -199 q 104 -199 92 -197 l 92 -130 q 96 -130 101 -131 q 106 -131 115 -131 q 150 -131 170 -115 q 189 -99 206 -53 l 225 0 l 202 0 z"},"@":{"x_min":0,"x_max":1000,"ha":1000,"o":"m 634 408 l 663 469 l 709 469 l 641 195 q 636 173 635 164 q 633 155 633 150 q 633 129 647 117 q 661 105 685 105 q 710 105 737 115 q 764 125 788 145 q 835 183 862 245 q 888 307 888 383 q 888 507 792 586 q 695 666 543 666 q 458 666 387 642 q 316 618 259 569 q 187 507 150 427 q 114 347 114 250 q 114 165 143 101 q 172 37 233 -12 q 283 -52 352 -75 q 421 -97 499 -97 q 583 -97 662 -73 q 742 -49 809 -3 l 828 -30 q 756 -84 676 -111 q 596 -138 509 -138 q 416 -138 339 -115 q 263 -93 205 -48 q 129 10 93 86 q 57 162 57 262 q 57 362 99 448 q 141 535 222 602 q 287 655 368 683 q 449 710 544 710 q 623 710 694 688 q 766 667 816 628 q 879 580 911 517 q 943 454 943 380 q 943 296 913 229 q 882 161 824 115 q 790 89 751 75 q 713 61 673 61 q 625 61 602 79 q 579 98 579 135 q 579 137 580 142 q 580 146 580 149 q 555 106 518 84 q 481 61 436 61 q 361 61 322 102 q 283 143 283 221 q 283 333 349 411 q 415 488 510 488 q 556 488 587 468 q 618 448 634 408 z m 591 229 l 621 350 q 612 396 584 421 q 556 447 516 447 q 441 447 392 382 q 343 316 343 217 q 343 163 370 132 q 396 102 444 102 q 496 102 536 137 q 577 172 591 229 z"},".":{"x_min":0,"x_max":338,"ha":338,"o":"m 65 0 l 65 106 l 150 106 l 150 0 z"},"p":{"x_min":0,"x_max":574,"ha":574,"o":"m 156 215 q 156 135 193 98 q 230 62 313 62 q 388 62 412 89 q 437 116 437 213 l 437 301 q 437 398 412 425 q 388 452 313 452 q 230 452 193 416 q 156 379 156 299 z m 80 514 l 153 514 l 153 434 q 171 479 211 500 q 250 521 316 521 q 426 521 471 476 q 516 430 516 318 l 516 196 q 516 84 471 39 q 426 -7 316 -7 q 252 -7 215 12 q 178 31 156 73 l 156 -197 l 80 -197 z"},"X":{"x_min":0,"x_max":637,"ha":637,"o":"m -7 0 l 278 382 l 21 727 l 114 727 l 319 442 l 523 727 l 617 727 l 360 383 l 643 0 l 552 0 l 320 324 l 85 0 z"},"*":{"x_min":0,"x_max":500,"ha":500,"o":"m 191 507 l 247 475 l 177 354 l 122 386 z m 187 512 l 49 512 l 49 577 l 187 577 z m 253 475 l 309 507 l 378 387 l 323 355 z m 312 512 l 312 577 l 451 577 l 451 512 z m 323 735 l 378 703 l 309 582 l 253 615 z m 122 703 l 177 735 l 247 615 l 191 583 z"},"Y":{"x_min":0,"x_max":595,"ha":595,"o":"m 337 0 l 258 0 l 258 322 l -43 727 l 52 727 l 297 388 l 542 727 l 637 727 l 337 323 z"},"c":{"x_min":0,"x_max":565,"ha":565,"o":"m 265 -7 q 150 -7 104 38 q 58 83 58 196 l 58 318 q 58 431 104 476 q 149 521 264 521 l 300 521 q 409 521 457 479 q 505 438 507 342 l 428 342 q 426 404 400 428 q 374 451 300 451 l 264 451 q 186 451 161 425 q 137 398 137 301 l 137 213 q 137 115 162 88 q 186 62 264 62 l 300 62 q 375 62 402 88 q 428 113 428 181 l 428 190 l 507 190 l 507 180 q 507 80 459 36 q 412 -7 301 -7 z"},"!":{"x_min":0,"x_max":252,"ha":252,"o":"m 93 195 l 88 727 l 164 727 l 160 195 z m 88 0 l 88 94 l 164 94 l 164 0 z"},"/":{"x_min":0,"x_max":266,"ha":266,"o":"m 44 -93 l -23 -93 l 235 736 l 303 736 z"},"[":{"x_min":0,"x_max":324,"ha":324,"o":"m 74 727 l 282 727 l 282 650 l 152 650 l 152 77 l 282 77 l 282 0 l 74 0 z"},"6":{"x_min":0,"x_max":676,"ha":676,"o":"m 76 203 l 76 537 q 76 646 125 691 q 173 736 290 736 l 403 736 q 514 736 562 698 q 611 661 611 576 l 611 537 l 530 537 l 530 560 q 530 619 498 639 q 466 659 356 659 q 280 659 245 655 q 209 650 193 639 q 175 628 164 602 q 153 576 153 545 l 153 373 q 172 413 216 429 q 260 446 359 446 q 496 446 552 412 q 609 377 609 298 l 609 166 q 609 114 594 78 q 579 42 549 22 q 521 4 480 -3 q 439 -10 328 -10 q 185 -10 131 37 q 76 84 76 203 z m 529 171 l 529 275 q 529 333 498 353 q 466 372 341 372 q 267 372 229 364 q 192 356 175 338 q 163 325 157 301 q 152 276 152 227 q 152 181 156 154 q 160 127 169 116 q 189 90 225 79 q 260 69 364 69 q 468 69 498 89 q 529 108 529 171 z"},"r":{"x_min":0,"x_max":468,"ha":468,"o":"m 78 0 l 78 514 l 152 514 l 152 444 q 168 484 202 502 q 236 521 293 521 q 377 521 411 480 q 445 440 445 337 l 445 333 l 368 333 l 368 348 q 368 410 349 431 q 329 452 275 452 q 211 452 183 416 q 155 380 155 299 l 155 0 z"},"2":{"x_min":0,"x_max":676,"ha":676,"o":"m 73 0 l 73 123 q 73 180 82 213 q 91 246 111 270 q 130 292 159 308 q 188 324 255 342 l 419 387 q 457 397 481 410 q 506 422 515 436 q 522 446 525 463 q 528 481 528 532 q 528 585 521 606 q 514 627 497 640 q 482 651 439 656 q 396 661 318 661 q 213 661 184 638 q 156 615 156 540 l 156 497 l 73 497 l 73 545 q 73 653 125 694 q 176 736 323 736 q 408 736 450 732 q 493 728 514 718 q 567 694 588 656 q 608 618 608 525 q 608 422 578 382 q 547 341 462 317 l 259 260 q 193 241 175 220 q 156 198 156 156 l 156 76 l 608 76 l 608 0 z"},"{":{"x_min":0,"x_max":500,"ha":500,"o":"m 417 669 l 399 669 q 335 669 312 645 q 290 621 290 545 l 290 427 q 290 345 269 310 q 248 274 194 259 q 248 244 269 208 q 290 173 290 91 l 290 -27 q 290 -103 312 -127 q 334 -151 395 -151 q 398 -151 406 -150 q 413 -150 417 -150 l 417 -202 l 394 -202 q 298 -202 264 -167 q 230 -131 230 -22 l 230 97 q 230 172 202 203 q 174 234 107 234 q 104 234 96 233 q 89 233 85 233 l 85 286 q 89 286 96 286 q 104 285 107 285 q 174 285 202 316 q 230 347 230 422 l 230 540 q 230 649 264 685 q 298 721 394 721 l 417 721 z"},"9":{"x_min":0,"x_max":676,"ha":676,"o":"m 137 554 l 137 450 q 137 392 168 373 q 200 353 325 353 q 399 353 437 361 q 474 369 491 387 q 503 399 508 423 q 513 447 513 498 q 513 546 509 572 q 505 599 497 609 q 477 636 440 646 q 403 657 301 657 q 198 657 168 637 q 137 618 137 554 z m 590 523 l 590 188 q 590 80 542 35 q 493 -10 376 -10 l 263 -10 q 151 -10 103 27 q 55 64 55 149 l 55 188 l 136 188 l 136 165 q 136 106 168 86 q 200 66 310 66 q 386 66 421 71 q 457 75 473 86 q 491 97 502 123 q 513 149 513 180 l 513 354 q 494 313 450 297 q 406 280 306 280 q 169 280 113 314 q 57 348 57 427 l 57 560 q 57 612 72 648 q 87 684 117 703 q 145 721 188 729 q 230 736 337 736 q 480 736 535 689 q 590 642 590 523 z"}," ":{"x_min":0,"x_max":338,"ha":338,"o":""},"I":{"x_min":0,"x_max":257,"ha":257,"o":"m 88 0 l 88 727 l 169 727 l 169 0 z"},"H":{"x_min":0,"x_max":755,"ha":755,"o":"m 88 0 l 88 727 l 168 727 l 168 413 l 587 413 l 587 727 l 667 727 l 667 0 l 587 0 l 587 337 l 168 337 l 168 0 z"},"4":{"x_min":0,"x_max":676,"ha":676,"o":"m 134 246 l 442 246 l 442 647 z m 55 169 l 55 262 l 411 727 l 523 727 l 523 246 l 634 246 l 634 169 l 523 169 l 523 0 l 442 0 l 442 169 z"},"~":{"x_min":0,"x_max":833,"ha":833,"o":"m 747 311 q 697 276 650 259 q 604 241 558 241 q 510 241 431 269 q 421 272 417 274 l 409 277 q 323 308 276 308 q 235 308 190 290 q 146 271 87 230 l 87 285 q 139 321 186 338 q 232 356 276 356 q 327 356 409 326 q 414 324 417 323 q 422 321 433 317 q 514 288 558 288 q 600 288 645 307 q 689 325 747 366 z"},"D":{"x_min":0,"x_max":750,"ha":750,"o":"m 88 0 l 88 727 l 439 727 q 576 727 631 673 q 686 619 686 484 l 686 244 q 686 109 631 54 q 575 0 439 0 z m 168 72 l 426 72 q 531 72 566 107 q 602 143 602 243 l 602 478 q 602 583 567 619 q 531 655 426 655 l 168 655 z"},"^":{"x_min":0,"x_max":1000,"ha":1000,"o":"m 534 712 l 793 440 l 723 440 l 500 662 l 276 440 l 206 440 l 466 712 z"},"0":{"x_min":0,"x_max":676,"ha":676,"o":"m 306 66 l 370 66 q 427 66 453 73 q 479 81 497 99 q 514 117 521 144 q 528 171 528 241 l 528 253 l 528 485 q 528 555 521 582 q 514 609 497 627 q 479 646 451 653 q 424 661 370 661 l 306 661 q 248 661 222 654 q 196 646 179 628 q 162 610 155 583 q 148 555 148 485 l 148 473 l 148 242 q 148 172 155 144 q 162 117 179 99 q 196 81 222 73 q 248 66 306 66 z m 303 -9 q 170 -9 118 46 q 65 101 65 240 l 65 487 q 65 626 118 681 q 170 736 303 736 l 373 736 q 506 736 558 681 q 611 626 611 487 l 611 240 q 611 101 558 46 q 506 -9 373 -9 z"},"F":{"x_min":0,"x_max":593,"ha":593,"o":"m 88 0 l 88 727 l 542 727 l 542 650 l 168 650 l 168 412 l 531 412 l 531 338 l 168 338 l 168 0 z"},"`":{"x_min":0,"x_max":500,"ha":500,"o":"m 266 575 l 135 745 l 209 745 l 311 575 z"},"k":{"x_min":0,"x_max":484,"ha":484,"o":"m 79 0 l 79 727 l 155 727 l 155 314 l 178 314 l 346 514 l 433 514 l 239 285 l 471 0 l 375 0 l 178 244 l 155 244 l 155 0 z"},"u":{"x_min":0,"x_max":576,"ha":576,"o":"m 498 514 l 498 0 l 425 0 l 425 70 q 407 31 365 12 q 324 -7 256 -7 q 155 -7 115 34 q 74 75 74 177 l 74 514 l 150 514 l 150 193 q 150 113 174 87 q 198 62 267 62 q 347 62 384 99 q 421 135 421 215 l 421 514 z"},"]":{"x_min":0,"x_max":324,"ha":324,"o":"m 250 727 l 250 0 l 42 0 l 42 77 l 172 77 l 172 650 l 42 650 l 42 727 z"},"U":{"x_min":0,"x_max":748,"ha":748,"o":"m 81 727 l 162 727 l 162 250 q 162 180 170 152 q 177 124 196 107 q 215 89 242 82 q 270 75 336 75 l 412 75 q 479 75 506 82 q 534 89 553 107 q 571 124 579 151 q 586 179 586 250 l 586 727 l 667 727 l 667 240 q 667 101 612 46 q 557 -9 418 -9 l 330 -9 q 191 -9 136 46 q 81 101 81 240 z"},"o":{"x_min":0,"x_max":565,"ha":565,"o":"m 428 213 l 428 301 q 428 398 404 425 q 379 451 300 451 l 264 451 q 186 451 161 425 q 137 398 137 301 l 137 213 q 137 115 162 88 q 186 62 264 62 l 300 62 q 378 62 403 89 q 428 116 428 213 z m 265 -7 q 150 -7 104 38 q 58 83 58 196 l 58 318 q 58 431 104 476 q 149 521 264 521 l 300 521 q 415 521 461 476 q 507 431 507 318 l 507 196 q 507 83 461 38 q 416 -7 301 -7 z"},"N":{"x_min":0,"x_max":775,"ha":775,"o":"m 88 0 l 88 727 l 212 727 l 606 78 l 606 727 l 686 727 l 686 0 l 562 0 l 168 650 l 168 0 z"},"+":{"x_min":0,"x_max":833,"ha":833,"o":"m 441 596 l 441 322 l 709 322 l 709 274 l 441 274 l 441 0 l 393 0 l 393 274 l 124 274 l 124 322 l 393 322 l 393 596 z"},"G":{"x_min":0,"x_max":734,"ha":734,"o":"m 60 487 q 60 626 118 681 q 175 736 322 736 l 414 736 q 548 736 612 690 q 676 645 676 548 l 676 517 l 593 517 l 593 526 q 593 601 555 631 q 517 660 409 660 l 345 660 q 271 660 238 652 q 205 644 182 624 q 161 606 153 576 q 144 545 144 467 l 144 260 q 144 182 153 151 q 161 121 182 103 q 205 83 237 75 q 269 67 345 67 l 409 67 q 479 67 507 74 q 536 82 557 99 q 577 116 585 145 q 593 173 593 243 l 593 288 l 391 288 l 391 362 l 676 362 l 676 240 q 676 101 618 46 q 561 -9 414 -9 l 322 -9 q 175 -9 118 46 q 60 101 60 240 z"},"q":{"x_min":0,"x_max":574,"ha":574,"o":"m 418 215 l 418 299 q 418 379 381 416 q 343 452 261 452 q 187 452 162 425 q 137 398 137 301 l 137 213 q 137 116 162 89 q 187 62 261 62 q 343 62 381 98 q 418 135 418 215 z m 494 514 l 494 -197 l 418 -197 l 418 73 q 396 31 359 12 q 322 -7 259 -7 q 149 -7 104 39 q 58 84 58 196 l 58 318 q 58 430 104 475 q 149 521 259 521 q 325 521 364 500 q 402 479 421 434 l 421 514 z"},"d":{"x_min":0,"x_max":574,"ha":574,"o":"m 418 215 l 418 299 q 418 379 381 416 q 343 452 261 452 q 187 452 162 425 q 137 398 137 301 l 137 213 q 137 116 162 89 q 187 62 261 62 q 343 62 381 98 q 418 135 418 215 z m 421 79 q 403 34 364 14 q 325 -7 259 -7 q 149 -7 104 39 q 58 84 58 196 l 58 318 q 58 430 104 475 q 149 521 259 521 q 322 521 359 502 q 396 483 418 441 l 418 727 l 494 727 l 494 0 l 421 0 z"},"1":{"x_min":0,"x_max":676,"ha":676,"o":"m 357 0 l 357 655 l 186 483 l 136 532 l 331 727 l 436 727 l 436 0 z"},"5":{"x_min":0,"x_max":676,"ha":676,"o":"m 69 213 l 150 213 l 150 165 q 150 107 183 87 q 217 66 332 66 l 357 66 q 420 66 447 75 q 474 85 493 108 q 504 121 509 141 q 513 161 513 209 l 513 222 l 513 242 q 513 298 510 324 q 506 350 497 368 q 481 399 447 412 q 414 425 336 425 q 237 425 201 409 q 165 394 163 355 l 83 355 l 83 727 l 563 727 l 563 650 l 163 650 l 163 441 q 185 471 220 483 q 255 495 346 495 q 426 495 465 486 q 504 478 530 457 q 565 428 580 383 q 595 338 595 245 q 595 157 583 114 q 571 70 543 44 q 512 15 469 3 q 427 -9 337 -9 q 225 -9 180 4 q 135 17 108 48 q 89 71 79 101 q 69 131 69 166 z"}}}
